<svg width="32" height="32" viewBox="0 0 32 32" fill="currentColor"
	xmlns="http://www.w3.org/2000/svg">
	<path opacity="0.4" d="M21.586 2.66666H10.4127C5.55935 2.66666 2.66602 5.55999 2.66602 10.4133V21.5733C2.66602 26.44 5.55935 29.3333 10.4127 29.3333H21.5727C26.426 29.3333 29.3193 26.44 29.3193 21.5867V10.4133C29.3327 5.55999 26.4394 2.66666 21.586 2.66666Z"/>
	<path d="M14.3209 21.7067C14.0676 21.7067 13.8142 21.6133 13.6142 21.4133C13.2276 21.0267 13.2276 20.3867 13.6142 20L17.6142 16L13.6142 12C13.2276 11.6133 13.2276 10.9733 13.6142 10.5867C14.0009 10.2 14.6409 10.2 15.0276 10.5867L19.7342 15.2933C20.1209 15.68 20.1209 16.32 19.7342 16.7067L15.0276 21.4133C14.8276 21.6133 14.5742 21.7067 14.3209 21.7067Z"/>
</svg>
