<svg width="16" height="16" viewBox="0 0 16 16" fill="currentColor"
	xmlns="http://www.w3.org/2000/svg">
	<path opacity="0.4" d="M12 13.6666H11.3333V13.4999C11.3333 12.7666 10.7333 12.1666 10 12.1666H8.5V10.6399C8.33333 10.6599 8.16667 10.6666 8 10.6666C7.83333 10.6666 7.66667 10.6599 7.5 10.6399V12.1666H6C5.26667 12.1666 4.66667 12.7666 4.66667 13.4999V13.6666H4C3.72667 13.6666 3.5 13.8932 3.5 14.1666C3.5 14.4399 3.72667 14.6666 4 14.6666H12C12.2733 14.6666 12.5 14.4399 12.5 14.1666C12.5 13.8932 12.2733 13.6666 12 13.6666Z"/>
	<path opacity="0.4" d="M3.68002 7.75992C3.24002 7.59325 2.85335 7.31992 2.54669 7.01325C1.92669 6.32659 1.52002 5.50659 1.52002 4.54659C1.52002 3.58659 2.27335 2.83325 3.23335 2.83325H3.60669C3.43335 3.18659 3.33335 3.57992 3.33335 3.99992V5.99992C3.33335 6.62659 3.45335 7.21992 3.68002 7.75992Z"/>
	<path opacity="0.4" d="M14.4798 4.54659C14.4798 5.50659 14.0732 6.32659 13.4532 7.01325C13.1465 7.31992 12.7598 7.59325 12.3198 7.75992C12.5465 7.21992 12.6665 6.62659 12.6665 5.99992V3.99992C12.6665 3.57992 12.5665 3.18659 12.3932 2.83325H12.7665C13.7265 2.83325 14.4798 3.58659 14.4798 4.54659Z"/>
	<path d="M10.0002 1.33325H6.00016C4.52683 1.33325 3.3335 2.52659 3.3335 3.99992V5.99992C3.3335 8.57992 5.42016 10.6666 8.00016 10.6666C10.5802 10.6666 12.6668 8.57992 12.6668 5.99992V3.99992C12.6668 2.52659 11.4735 1.33325 10.0002 1.33325ZM9.8935 5.63325L9.48016 6.13992C9.4135 6.21325 9.36683 6.35992 9.3735 6.45992L9.4135 7.11325C9.44016 7.51325 9.1535 7.71992 8.78016 7.57325L8.1735 7.33325C8.08016 7.29992 7.92016 7.29992 7.82683 7.33325L7.22016 7.57325C6.84683 7.71992 6.56016 7.51325 6.58683 7.11325L6.62683 6.45992C6.6335 6.35992 6.58683 6.21325 6.52016 6.13992L6.10683 5.63325C5.84683 5.32659 5.96016 4.98659 6.34683 4.88659L6.98016 4.72659C7.08016 4.69992 7.20016 4.60659 7.2535 4.51992L7.60683 3.97325C7.82683 3.63325 8.1735 3.63325 8.3935 3.97325L8.74683 4.51992C8.80016 4.60659 8.92016 4.69992 9.02016 4.72659L9.6535 4.88659C10.0402 4.98659 10.1535 5.32659 9.8935 5.63325Z"/>
	<path opacity="0.4" d="M9.89333 5.63326L9.47999 6.13993C9.41333 6.21326 9.36666 6.35993 9.37333 6.45993L9.41333 7.11326C9.43999 7.51326 9.15333 7.71993 8.77999 7.57326L8.17333 7.33326C8.07999 7.29993 7.91999 7.29993 7.82666 7.33326L7.21999 7.57326C6.84666 7.71993 6.55999 7.51326 6.58666 7.11326L6.62666 6.45993C6.63333 6.35993 6.58666 6.21326 6.51999 6.13993L6.10666 5.63326C5.84666 5.32659 5.95999 4.98659 6.34666 4.88659L6.97999 4.7266C7.07999 4.69993 7.19999 4.6066 7.25333 4.51993L7.60666 3.97326C7.82666 3.63326 8.17333 3.63326 8.39333 3.97326L8.74666 4.51993C8.79999 4.6066 8.91999 4.69993 9.01999 4.7266L9.65333 4.88659C10.04 4.98659 10.1533 5.32659 9.89333 5.63326Z"/>
</svg>
