<svg width="16" height="16" viewBox="0 0 16 16" fill="currentColor"
	xmlns="http://www.w3.org/2000/svg">
	<path d="M3.43311 14.6666C3.15977 14.6666 2.93311 14.4399 2.93311 14.1666V1.83325C2.93311 1.55992 3.15977 1.33325 3.43311 1.33325C3.70644 1.33325 3.93311 1.55992 3.93311 1.83325V14.1666C3.93311 14.4399 3.70644 14.6666 3.43311 14.6666Z"/>
	<path opacity="0.4" d="M12.0135 8.22007L11.2002 7.40674C11.0068 7.24007 10.8935 6.9934 10.8868 6.72007C10.8735 6.42007 10.9935 6.12007 11.2135 5.90007L12.0135 5.10007C12.7068 4.40674 12.9668 3.74007 12.7468 3.21341C12.5335 2.69341 11.8735 2.40674 10.9002 2.40674H3.43351C3.29351 2.4134 3.18018 2.52674 3.18018 2.66674V10.6667C3.18018 10.8067 3.29351 10.9201 3.43351 10.9201H10.9002C11.8602 10.9201 12.5068 10.6267 12.7268 10.1001C12.9468 9.56674 12.6935 8.90674 12.0135 8.22007Z"/>
</svg>
